<svg xmlns="http://www.w3.org/2000/svg" viewBox="0 0 320 56" fill="none">
  <defs>
    <linearGradient id="fq-wordmark" x1="20" y1="8" x2="70" y2="52" gradientUnits="userSpaceOnUse">
      <stop stop-color="#FF944D"/>
      <stop offset="0.5" stop-color="#FF6A00"/>
      <stop offset="1" stop-color="#B63C09"/>
    </linearGradient>
  </defs>
  <path d="M28 3L51 16.5V39.5L28 53L5 39.5V16.5L28 3Z" fill="#090B0D" stroke="#313942" stroke-width="1.6"/>
  <path d="M28 6L48.5 18V38L28 50L7.5 38V18L28 6Z" fill="#11161B" stroke="rgba(255,255,255,0.08)" stroke-width="1"/>
  <path d="M14 15H38V20H20V27H31.5V32H20V43H14V15Z" fill="#EEF2F6"/>
  <path d="M33.5 23.5a9.5 9.5 0 1 1-6.72 16.21" stroke="url(#fq-wordmark)" stroke-width="3" fill="none" stroke-linecap="square"/>
  <path d="M36.8 37.8L43 44" stroke="url(#fq-wordmark)" stroke-width="3" stroke-linecap="square"/>
  <path d="M43.5 12.5L15 45.5" stroke="url(#fq-wordmark)" stroke-width="1" opacity="0.72"/>
  <text x="70" y="25" font-family="'Barlow Condensed','Barlow',system-ui,sans-serif" font-size="20" font-weight="700" letter-spacing="4" fill="#EEF2F6">FUSIONEMS</text>
  <text x="70" y="44" font-family="'Barlow Condensed','Barlow',system-ui,sans-serif" font-size="11" font-weight="600" letter-spacing="6" fill="#FF7A2F">QUANTUM COMMAND PLATFORM</text>
</svg>
